<svg width="95" height="36" viewBox="0 0 95 36" fill="none" xmlns="http://www.w3.org/2000/svg">
<path d="M1.51278 25V11.9091H10.3338V14.1911H4.28054V17.3104H9.87997V19.5923H4.28054V22.718H10.3594V25H1.51278ZM16.9192 25.1918C15.9135 25.1918 15.0485 24.9787 14.324 24.5526C13.6039 24.1222 13.0499 23.5256 12.6621 22.7628C12.2786 22 12.0868 21.1222 12.0868 20.1293C12.0868 19.1236 12.2807 18.2415 12.6685 17.483C13.0605 16.7202 13.6167 16.1257 14.3368 15.6996C15.057 15.2692 15.9135 15.054 16.9064 15.054C17.763 15.054 18.513 15.2095 19.1564 15.5206C19.7999 15.8317 20.3091 16.2685 20.6841 16.831C21.0591 17.3935 21.2658 18.054 21.3042 18.8125H18.7346C18.6621 18.3224 18.4703 17.9283 18.1593 17.63C17.8525 17.3274 17.4498 17.1761 16.9512 17.1761C16.5293 17.1761 16.1607 17.2912 15.8453 17.5213C15.5343 17.7472 15.2914 18.0774 15.1167 18.5121C14.9419 18.9467 14.8546 19.473 14.8546 20.0909C14.8546 20.7173 14.9398 21.25 15.1103 21.6889C15.285 22.1278 15.53 22.4624 15.8453 22.6925C16.1607 22.9226 16.5293 23.0376 16.9512 23.0376C17.2623 23.0376 17.5414 22.9737 17.7885 22.8459C18.04 22.718 18.2466 22.5327 18.4086 22.2898C18.5748 22.0426 18.6834 21.7464 18.7346 21.4013H21.3042C21.2615 22.1513 21.057 22.8118 20.6905 23.3828C20.3283 23.9496 19.8276 24.3928 19.1884 24.7124C18.5492 25.032 17.7928 25.1918 16.9192 25.1918ZM27.4837 25.1918C26.4908 25.1918 25.6321 24.9808 24.9077 24.5589C24.1875 24.1328 23.6314 23.5405 23.2393 22.782C22.8473 22.0192 22.6513 21.1349 22.6513 20.1293C22.6513 19.1151 22.8473 18.2287 23.2393 17.4702C23.6314 16.7074 24.1875 16.1151 24.9077 15.6932C25.6321 15.267 26.4908 15.054 27.4837 15.054C28.4766 15.054 29.3331 15.267 30.0533 15.6932C30.7777 16.1151 31.3359 16.7074 31.728 17.4702C32.12 18.2287 32.3161 19.1151 32.3161 20.1293C32.3161 21.1349 32.12 22.0192 31.728 22.782C31.3359 23.5405 30.7777 24.1328 30.0533 24.5589C29.3331 24.9808 28.4766 25.1918 27.4837 25.1918ZM27.4964 23.0824C27.9482 23.0824 28.3253 22.9545 28.6278 22.6989C28.9304 22.4389 29.1584 22.0852 29.3118 21.6378C29.4695 21.1903 29.5483 20.6811 29.5483 20.1101C29.5483 19.5391 29.4695 19.0298 29.3118 18.5824C29.1584 18.1349 28.9304 17.7812 28.6278 17.5213C28.3253 17.2614 27.9482 17.1314 27.4964 17.1314C27.0405 17.1314 26.657 17.2614 26.3459 17.5213C26.0391 17.7812 25.8068 18.1349 25.6491 18.5824C25.4957 19.0298 25.419 19.5391 25.419 20.1101C25.419 20.6811 25.4957 21.1903 25.6491 21.6378C25.8068 22.0852 26.0391 22.4389 26.3459 22.6989C26.657 22.9545 27.0405 23.0824 27.4964 23.0824Z" fill="#FFAC3F"/>
<path d="M37.5128 25V11.9091H40.2805V17.3104H45.8991V11.9091H48.6605V25H45.8991V19.5923H40.2805V25H37.5128ZM52.5724 28.6818C52.2273 28.6818 51.9034 28.6541 51.6009 28.5987C51.3026 28.5476 51.0554 28.4815 50.8594 28.4006L51.473 26.3679C51.7926 26.4659 52.0803 26.5192 52.3359 26.5277C52.5959 26.5362 52.8196 26.4766 53.0071 26.3487C53.1989 26.2209 53.3544 26.0036 53.4737 25.6967L53.6335 25.2812L50.1115 15.1818H52.9751L55.0078 22.392H55.1101L57.1619 15.1818H60.0447L56.2287 26.0611C56.0455 26.5895 55.7962 27.0497 55.4808 27.4418C55.1697 27.8381 54.7756 28.1428 54.2983 28.3558C53.821 28.5732 53.2457 28.6818 52.5724 28.6818ZM61.4382 28.6818V15.1818H64.1229V16.831H64.2443C64.3636 16.5668 64.5362 16.2983 64.7621 16.0256C64.9922 15.7486 65.2905 15.5185 65.657 15.3352C66.0277 15.1477 66.4879 15.054 67.0376 15.054C67.7536 15.054 68.4141 15.2415 69.0192 15.6165C69.6243 15.9872 70.108 16.5476 70.4702 17.2976C70.8324 18.0433 71.0135 18.9787 71.0135 20.1037C71.0135 21.1989 70.8366 22.1236 70.483 22.8778C70.1335 23.6278 69.6563 24.1967 69.0511 24.5845C68.4503 24.968 67.777 25.1598 67.0312 25.1598C66.5028 25.1598 66.0533 25.0724 65.6825 24.8977C65.3161 24.723 65.0156 24.5036 64.7812 24.2393C64.5469 23.9709 64.3679 23.7003 64.2443 23.4276H64.1612V28.6818H61.4382ZM64.1037 20.0909C64.1037 20.6747 64.1847 21.1839 64.3466 21.6186C64.5085 22.0533 64.7429 22.392 65.0497 22.6349C65.3565 22.8736 65.7294 22.9929 66.1683 22.9929C66.6115 22.9929 66.9865 22.8714 67.2933 22.6286C67.6001 22.3814 67.8324 22.0405 67.9901 21.6058C68.152 21.1669 68.233 20.6619 68.233 20.0909C68.233 19.5241 68.1541 19.0256 67.9964 18.5952C67.8388 18.1648 67.6065 17.8281 67.2997 17.5852C66.9929 17.3423 66.6158 17.2209 66.1683 17.2209C65.7251 17.2209 65.3501 17.3381 65.0433 17.5724C64.7408 17.8068 64.5085 18.1392 64.3466 18.5696C64.1847 19 64.1037 19.5071 64.1037 20.0909ZM77.3033 25.1918C76.2933 25.1918 75.424 24.9872 74.6953 24.5781C73.9709 24.1648 73.4126 23.581 73.0206 22.8267C72.6286 22.0682 72.4325 21.1712 72.4325 20.1357C72.4325 19.1257 72.6286 18.2393 73.0206 17.4766C73.4126 16.7138 73.9645 16.1193 74.6761 15.6932C75.392 15.267 76.2315 15.054 77.1946 15.054C77.8423 15.054 78.4453 15.1584 79.0036 15.3672C79.5661 15.5717 80.0561 15.8807 80.4737 16.294C80.8956 16.7074 81.2237 17.2273 81.4581 17.8537C81.6925 18.4759 81.8097 19.2045 81.8097 20.0398V20.7876H73.5192V19.1001H79.2464C79.2464 18.7081 79.1612 18.3608 78.9908 18.0582C78.8203 17.7557 78.5838 17.5192 78.2812 17.3487C77.983 17.174 77.6357 17.0866 77.2393 17.0866C76.826 17.0866 76.4595 17.1825 76.1399 17.3743C75.8246 17.5618 75.5774 17.8153 75.3984 18.1349C75.2195 18.4503 75.1278 18.8018 75.1236 19.1896V20.794C75.1236 21.2798 75.2131 21.6996 75.392 22.0533C75.5753 22.407 75.8331 22.6797 76.1655 22.8714C76.4979 23.0632 76.892 23.1591 77.348 23.1591C77.6506 23.1591 77.9276 23.1165 78.179 23.0312C78.4304 22.946 78.6456 22.8182 78.8246 22.6477C79.0036 22.4773 79.1399 22.2685 79.2337 22.0213L81.7521 22.1875C81.6243 22.7926 81.3622 23.321 80.9659 23.7727C80.5739 24.2202 80.0668 24.5696 79.4446 24.821C78.8267 25.0682 78.1129 25.1918 77.3033 25.1918ZM83.5866 25V15.1818H86.2266V16.8949H86.3288C86.5078 16.2855 86.8082 15.8253 87.2301 15.5142C87.652 15.1989 88.1378 15.0412 88.6875 15.0412C88.8239 15.0412 88.9709 15.0497 89.1286 15.0668C89.2862 15.0838 89.4247 15.1072 89.544 15.1371V17.5533C89.4162 17.5149 89.2393 17.4808 89.0135 17.451C88.7876 17.4212 88.581 17.4062 88.3935 17.4062C87.9929 17.4062 87.6349 17.4936 87.3196 17.6683C87.0085 17.8388 86.7614 18.0774 86.5781 18.3842C86.3991 18.6911 86.3097 19.0447 86.3097 19.4453V25H83.5866Z" fill="#467C8C"/>
</svg>
