<svg width="81" height="48" viewBox="0 0 81 48" fill="none" xmlns="http://www.w3.org/2000/svg">
<rect x="26.375" y="18" width="12" height="12" fill="#467C8C"/>
<rect x="41.375" y="18" width="12" height="12" fill="#467C8C"/>
<rect x="26.375" y="33" width="12" height="12" fill="#467C8C"/>
<rect x="41.375" y="33" width="12" height="12" fill="#FFAC3F"/>
<path d="M80.375 40C80.375 29.3913 76.1607 19.2172 68.6593 11.7157C61.1578 4.21427 50.9837 8.00932e-07 40.375 0C29.7663 -8.00931e-07 19.5922 4.21427 12.0907 11.7157C4.58928 19.2172 0.375002 29.3913 0.375 40L10.785 40C10.785 32.1522 13.9025 24.6259 19.4517 19.0767C25.0009 13.5275 32.5272 10.41 40.375 10.41C48.2228 10.41 55.7491 13.5275 61.2983 19.0767C66.8475 24.6259 69.965 32.1522 69.965 40H80.375Z" fill="#467C8C"/>
</svg>
